<mxfile host="app.diagrams.net" modified="2024-04-08T11:11:14.284Z" agent="Mozilla/5.0 (Macintosh; Intel Mac OS X 10_15_7) AppleWebKit/537.36 (KHTML, like Gecko) Chrome/122.0.0.0 Safari/537.36" version="24.2.2" etag="abXnHp5BnH6mLcqp3bLw" type="github">
  <diagram name="第 1 页" id="0kfhwxslDsOkkO1lpwJu">
    <mxGraphModel>
      <root>
        <mxCell id="0" />
        <mxCell id="1" parent="0" />
      </root>
    </mxGraphModel>
  </diagram>
</mxfile>
